<svg viewBox="0 0 16 16" xmlns="http://www.w3.org/2000/svg">
    <circle fill="#40A459" cx="8" cy="8" r="6.61"/>
    <path d="M7.986 1.39a6.758 6.758 0 00-.332.008l-.036.002a6.775 6.775 0 00-.108.007l-.055.004a6.622 6.622 0 00-.124.011l-.064.007a6.83 6.83 0 00-.077.009l-.067.008a6.611 6.611 0 010 13.108l.067.008.077.01.064.006.125.011.054.004.108.007.036.002a6.68 6.68 0 00.332.008 6.61 6.61 0 100-13.22z" fill="#378B4E"/>
    <path d="M7.123 7.425l2.758-1.582s3.016.642 3.713-.628l.22-.4.19.414a6.627 6.627 0 01-2.298 8.249l-.187.128-4.396-6.18z" fill="#898790"/>
    <path d="M14.596 8a6.58 6.58 0 00-.8-3.154l-.202.369c-.245.446-.567.902-.888 1.313.108.473.165.966.165 1.472a6.59 6.59 0 01-1.977 4.714l.618.897A6.635 6.635 0 0014.596 8z" fill="#7A797F"/>
    <path d="M7.986 14.625a6.606 6.606 0 01-5.577-3.052l-.117-.182 3.682-3.104 4.237 5.955-.27.088a6.606 6.606 0 01-1.955.295z" fill="#3D9AE3"/>
    <path d="M10.238 14.232l-.448-.642a6.6 6.6 0 01-2.67.979c.283.036.573.041.866.041.788 0 1.551-.125 2.252-.378z" fill="#1D81CE"/>
    <path d="M5.974 8.287l1.15-.862 4.42 6.166-.215.126a6.622 6.622 0 01-.95.46l-.168.065-4.237-5.955z" fill="#FFF"/>
    <path d="M10.211 14.242a6.585 6.585 0 001.332-.65l-.637-.89a6.64 6.64 0 01-1.146.907l.451.633z" fill="#E0E0E3"/>
    <path d="M2.18 11.188a6.613 6.613 0 01-.458-1.03l-.055-.209 7.756-5.398 1.15.862-8.28 5.978-.113-.203z" fill="#FFCE00"/>
    <path d="M11.268 7.85c-.406-.424-2.435-2.607-2.435-3.874a2.604 2.604 0 012.601-2.6 2.604 2.604 0 012.601 2.6c0 1.266-2.028 3.45-2.435 3.874a.23.23 0 01-.332 0z" fill="#CD2900"/>
    <path d="M11.434 4.853a1.165 1.165 0 01-1.164-1.164c0-.642.523-1.164 1.164-1.164.642 0 1.164.522 1.164 1.164 0 .642-.522 1.164-1.164 1.164z" fill="#891D00"/>
    <path d="M5.112 6.204c.752 0 1.365-.613 1.365-1.365a.216.216 0 00-.216-.216H5.4a.216.216 0 000 .431h.622a.935.935 0 11-.909-1.15c.227 0 .447.083.617.234a.216.216 0 10.285-.323 1.364 1.364 0 00-2.268 1.024c0 .752.613 1.365 1.366 1.365z" fill="#FFF"/>
    <circle fill="#FFF" cx="11.5" cy="11.5" r="2.922"/>
    <path d="M12.666 12.665c.261-.261.709-.237 1 .055l2.098 2.098c.291.291.316.739.055 1.001-.261.261-.709.237-1-.055l-2.098-2.098c-.292-.292-.316-.74-.055-1.001z" fill="#E8A33D"/>
    <circle fill="#59F" cx="11.5" cy="11.5" r="2.5"/>
    <circle fill="#ABD7FF" cx="11.5" cy="11.5" r="1.5"/>
    <circle fill="#FFF" opacity=".604" cx="12" cy="11" r="1"/>
</svg>
